{
  "title": "Magic.Mike.XXL.2015.TS.XVID.AC3.HQ.Hive-CM8",
  "uid": 12126670,
  "size": 1491183149,
  "categoryP": "video",
  "categoryS": "movies",
  "magnet": "?xt=urn:btih:3e6b13ef9aea043109a9ee8b60cf32e3e3e22321&amp;dn=Magic.Mike.XXL.2015.TS.XVID.AC3.HQ.Hive-CM8&amp;tr=udp%3A%2F%2Ftracker.openbittorrent.com%3A80&amp;tr=udp%3A%2F%2Fopen.demonii.com%3A1337&amp;tr=udp%3A%2F%2Ftracker.coppersurfer.tk%3A6969&amp;tr=udp%3A%2F%2Fexodus.desync.com%3A6969",
  "seeders": 307,
  "leechers": 76,
  "uploader": "xxxlavalxxx",
  "files": 4,
  "time": 1436939130,
  "description": " &lt;a href=&quot;http://extraimago.com/image/1Qz&quot; rel=&quot;nofollow&quot; target=&quot;_NEW&quot;&gt;http://extraimago.com/image/1Qz&lt;/a&gt;\n &lt;a href=&quot;\nhttp://www.imdb.com/title/tt2268016/&quot; rel=&quot;nofollow&quot; target=&quot;_NEW&quot;&gt;\nhttp://www.imdb.com/title/tt2268016/&lt;/a&gt;\n\n\nThree years after Mike bowed out of the stripper life at the top of his game, he and the remaining Kings of Tampa hit the road to Myrtle Beach to put on one last blow-out performance.\n\nDirector: Gregory Jacobs\nWriters: Reid Carolin, Reid Carolin (characters)\nStars: Channing Tatum, Joe Manganiello, Matt Bomer \nGenres: Comedy | Drama | Music\nCountry: USA\nLanguage: English\n\n\nMagic.Mike.XXL.2015.TS.XVID.AC3.HQ.Hive-CM8\n\nThx Hive\n\nCM8 Doing It Right The First Time\n\nSources:\n\nVideo: Russian Cam (thx penus)\nAudio: Sweet Line Big Thx to S4NDM4N\n\nNotes:\n\nyeah, first release out! something for you or your gf,we know a few guys be drooling over this lol\nhad Line for a good week but there was no video out,finally a russian cammer went for us only, thx penus again\nportugal didnt go within 2 weeks, spain date has been pushed back for weeks and for most other countries cinedate is between august and september\nso there wont be another video coming the next 3 weeks at least, and by that time we know a web-dl might be out, who knows\nno need to wait any longer\n\nEncode:\n\nThe cam itself looked good i would say 6/10, it was already very bright and so i didnt feel the need to touch anything\nhad a slight flicker which is mostly gone, no additional sharpening as it would have hurt the video\nwithin the first 10mins the cam was occasionally aimed a bit too low, so you could see a top of a chair and the top of a head,cropped a bit off to hide as good as possible, but no biggie\nsplitted the first mins up in 10 parts and fixed perspective and angle as needed, rest of the movie is just fine and steady and untouched\n\nAudio was another 10/10 line from S4NDM4N, very good\nthere was no need for cleaning, lipsynced to my video\n\nthis will do me till retail/web-dl\nenjoy\n\nVideo: 720x256 @bitrate 1500 2pass\nAudio: English Line Stereo 2.0\nSample:Yes included\nPS: still need more cammers (for eg. antman,pixels) who can do a complete video, if you are up to the task msg me\neg. portugal, thx\n &lt;a href=&quot;\nhttp://www.imdb.com/title/tt2268016/&quot; rel=&quot;nofollow&quot; target=&quot;_NEW&quot;&gt;\nhttp://www.imdb.com/title/tt2268016/&lt;/a&gt;\n\nGeneral\nComplete name: Magic.Mike.XXL.2015.TS.XVID.AC3.HQ.Hive-CM8.avi\nFormat: AVI\nFormat/Info: Audio Video Interleave\nFile size: 1.36 GiB\nDuration: 1h 50mn\nOverall bit rate: 1 764 Kbps\nWriting application: Nandub v1.0rc2\nWriting library: Nandub build 1853/release\n\nVideo\nID: 0\nFormat: MPEG-4 Visual\nFormat profile: Advanced Simple@L5\nFormat settings, BVOP: 2\nFormat settings, QPel: Yes\nFormat settings, GMC: No warppoints\nFormat settings, Matrix: Default (H.263)\nMuxing mode: Packed bitstream\nCodec ID: XVID\nCodec ID/Hint: XviD\nDuration: 1h 50mn\nBit rate: 1 496 Kbps\nWidth: 720 pixels\nHeight: 256 pixels\nDisplay aspect ratio: 2.813\nFrame rate: 30.000 fps\nColor space: YUV\nChroma subsampling: 4:2:0\nBit depth: 8 bits\nScan type: Progressive\nCompression mode: Lossy\nBits/(Pixel*Frame): 0.271\nStream size: 1.16 GiB (85%)\nWriting library: XviD 1.2.1 (UTC 2008-12-04)\n\nAudio\nID: 1\nFormat: AC-3\nFormat/Info: Audio Coding 3\nMode extension: CM (complete main)\nFormat settings, Endianness: Big\nCodec ID: 2000\nDuration: 1h 50mn\nBit rate mode: Constant\nBit rate: 256 Kbps\nChannel(s): 2 channels\nChannel positions: Front: L R\nSampling rate: 48.0 KHz\nBit depth: 16 bits\nCompression mode: Lossy\nStream size: 203 MiB (15%)\nAlignment: Split accross interleaves\nInterleave, duration: 33 ms (1.00 video frame)\nInterleave, preload duration: 500 ms\n\n &lt;a href=&quot;\nhttp://extraimago.com/image/1Q0&quot; rel=&quot;nofollow&quot; target=&quot;_NEW&quot;&gt;\nhttp://extraimago.com/image/1Q0&lt;/a&gt; &lt;a href=&quot;\nhttp://extraimago.com/image/1QJ&quot; rel=&quot;nofollow&quot; target=&quot;_NEW&quot;&gt;\nhttp://extraimago.com/image/1QJ&lt;/a&gt; &lt;a href=&quot;\nhttp://extraimago.com/image/1QK&quot; rel=&quot;nofollow&quot; target=&quot;_NEW&quot;&gt;\nhttp://extraimago.com/image/1QK&lt;/a&gt; &lt;a href=&quot;\nhttp://extraimago.com/image/1QZ&quot; rel=&quot;nofollow&quot; target=&quot;_NEW&quot;&gt;\nhttp://extraimago.com/image/1QZ&lt;/a&gt; &lt;a href=&quot;\nhttp://extraimago.com/image/1Qe&quot; rel=&quot;nofollow&quot; target=&quot;_NEW&quot;&gt;\nhttp://extraimago.com/image/1Qe&lt;/a&gt; &lt;a href=&quot;\nhttp://extraimago.com/image/1Q4&quot; rel=&quot;nofollow&quot; target=&quot;_NEW&quot;&gt;\nhttp://extraimago.com/image/1Q4&lt;/a&gt;",
  "parsed": {
    "xt": "urn:btih:3e6b13ef9aea043109a9ee8b60cf32e3e3e22321",
    "dn": "Magic.Mike.XXL.2015.TS.XVID.AC3.HQ.Hive-CM8",
    "tr": [
      "udp://exodus.desync.com:6969",
      "udp://open.demonii.com:1337",
      "udp://tracker.coppersurfer.tk:6969",
      "udp://tracker.openbittorrent.com:80"
    ],
    "infoHash": "3e6b13ef9aea043109a9ee8b60cf32e3e3e22321",
    "infoHashBuffer": {
      "type": "Buffer",
      "data": [
        62,
        107,
        19,
        239,
        154,
        234,
        4,
        49,
        9,
        169,
        238,
        139,
        96,
        207,
        50,
        227,
        227,
        226,
        35,
        33
      ]
    },
    "name": "Magic.Mike.XXL.2015.TS.XVID.AC3.HQ.Hive-CM8",
    "announce": [
      "udp://exodus.desync.com:6969",
      "udp://open.demonii.com:1337",
      "udp://tracker.coppersurfer.tk:6969",
      "udp://tracker.openbittorrent.com:80"
    ],
    "urlList": []
  },
  "previous": 383,
  "peers": 28,
  "last_updated": "2016-12-24T22:57:08.906Z"
}